<?xml version="1.0" encoding="UTF-8"?>
<svg xmlns="http://www.w3.org/2000/svg" xmlns:xlink="http://www.w3.org/1999/xlink" width="223.05pt" height="360.95pt" viewBox="0 0 223.05 360.95" version="1.1">
<g id="surface1">
<path style=" stroke:none;fill-rule:evenodd;fill:rgb(10.984802%,10.594177%,9.423828%);fill-opacity:1;" d="M 194.800781 322.148438 L 0 322.148438 L 0 0 L 194.800781 0 Z M 4.601563 317.550781 L 190.199219 317.550781 L 190.199219 246.300781 L 4.601563 246.300781 Z M 56.097656 82.351563 L 49.199219 82.351563 L 49.199219 40.300781 L 56.097656 40.300781 Z M 69.5 11.800781 L 11.949219 11.800781 L 11.949219 161.851563 L 49.199219 161.851563 L 49.199219 110.800781 L 69.5 110.800781 L 93.347656 90.300781 L 93.347656 32.949219 Z M 146.5 40.300781 L 146.5 70 L 183.75 70 L 183.75 32.949219 L 162.199219 11.800781 L 122 11.800781 L 100.449219 32.949219 L 100.449219 140.949219 L 126 161.851563 L 160.699219 161.851563 L 183.75 140.949219 L 183.75 97.800781 L 146.5 97.800781 L 146.5 133.398438 L 138.75 133.398438 L 138.75 40.300781 "/>
<path style=" stroke:none;fill-rule:evenodd;fill:rgb(10.984802%,10.594177%,9.423828%);fill-opacity:1;" d="M 183.148438 252.398438 L 183.148438 263.601563 L 173.148438 263.601563 L 173.148438 274.851563 L 181.347656 274.851563 L 181.347656 285.800781 L 173.148438 285.800781 L 173.148438 299.699219 L 183.648438 299.699219 L 183.648438 310.75 L 158.847656 310.75 L 158.847656 252.398438 Z M 28.347656 263.601563 L 25.347656 263.601563 L 25.347656 276.652344 L 28.347656 276.652344 Z M 74.199219 266.550781 L 72.5 289.5 L 76.949219 289.5 L 75.300781 266.550781 Z M 33.699219 252.398438 L 42.300781 261 L 42.300781 276.300781 L 36.449219 281.699219 L 42.300781 287.402344 L 42.300781 310.75 L 28.347656 310.75 L 28.347656 287.550781 L 25.347656 287.550781 L 25.347656 310.75 L 10.949219 310.75 L 10.949219 252.398438 Z M 64.847656 252.398438 L 84.699219 252.398438 L 92.347656 310.75 L 78.5 310.75 L 77.75 300.152344 L 71.800781 300.152344 L 71 310.75 L 57.148438 310.75 Z M 116.449219 252.398438 L 131.449219 252.398438 L 140.050781 261 L 140.050781 275.300781 L 125.75 275.300781 L 125.75 263.652344 L 122.398438 263.652344 L 122.398438 299.800781 L 125.75 299.800781 L 125.75 286.050781 L 140.050781 286.050781 L 140.050781 303 L 131.648438 310.75 L 117 310.75 L 107.75 302.902344 L 107.75 261.101563 "/>
<path style=" stroke:none;fill-rule:evenodd;fill:rgb(100%,100%,100%);fill-opacity:1;" d="M 169.800781 196.351563 L 172.300781 196.351563 L 172.300781 185.75 L 169.800781 185.75 Z M 176.601563 176.648438 L 183.648438 183.648438 L 183.648438 196.050781 L 178.851563 200.449219 L 183.648438 205.101563 L 183.648438 224.050781 L 172.300781 224.050781 L 172.300781 205.199219 L 169.800781 205.199219 L 169.800781 224.050781 L 158.101563 224.050781 L 158.101563 176.648438 Z M 133.699219 224.050781 L 133.699219 176.648438 L 153.449219 176.648438 L 153.449219 185.75 L 145.351563 185.75 L 145.351563 194.898438 L 152 194.898438 L 152 203.800781 L 145.351563 203.800781 L 145.351563 215.101563 L 153.851563 215.101563 L 153.851563 224.050781 Z M 28.300781 200.199219 L 31.800781 176.648438 L 45 176.648438 L 45 224.050781 L 34.148438 224.050781 L 34.148438 200.199219 L 33.597656 200.199219 L 30.097656 224.050781 L 25.550781 224.050781 L 22.097656 200.199219 L 21.5 200.199219 L 21.5 224.050781 L 10.949219 224.050781 L 10.949219 176.648438 L 23.800781 176.648438 L 27.300781 200.199219 Z M 58.949219 224.050781 L 47.75 224.050781 L 53.949219 176.648438 L 70.148438 176.648438 L 76.347656 224.050781 L 65.050781 224.050781 L 64.449219 215.449219 L 59.597656 215.449219 Z M 61.550781 188.148438 L 60.199219 206.800781 L 63.847656 206.800781 L 62.5 188.148438 Z M 103.949219 183.449219 L 103.949219 191.949219 L 92.648438 191.949219 L 92.648438 185.800781 L 90.148438 185.800781 L 90.148438 195.5 L 97.097656 196.101563 L 104.601563 202.648438 L 104.601563 217.75 L 98.300781 224.050781 L 84.648438 224.050781 L 78.25 217.648438 L 78.25 209.101563 L 90.148438 209.101563 L 90.148438 215.398438 L 92.648438 215.398438 L 92.648438 205.550781 L 85.75 204.800781 L 78.847656 198.5 L 78.847656 183.25 L 85.449219 176.648438 L 97.148438 176.648438 Z M 107.148438 176.648438 L 130.550781 176.648438 L 130.550781 185.648438 L 125.148438 185.648438 L 125.148438 224.050781 L 112.898438 224.050781 L 112.898438 185.648438 L 107.148438 185.648438 "/>
</g>
</svg>
